<?xml version="1.0" encoding="UTF-8"?>
<svg id="Layer_2" data-name="Layer 2" xmlns="http://www.w3.org/2000/svg" viewBox="0 0 624.9 103.3">
  <defs>
    <style>
      .cls-1 {
        fill: #f9f9fa;
      }

      .cls-2 {
        fill: #3fba8d;
      }

      .cls-3 {
        isolation: isolate;
      }
    </style>
  </defs>
  <g id="Layer_2-2" data-name="Layer 2">
    <g class="cls-3">
      <path class="cls-1" d="M41.2,5.2h15.5V77.6h-15.5v-31H15.5v31H0V5.2H15.5V31h25.6V5.2h.1Z"/>
      <path class="cls-1" d="M104.5,25.8h16.5l-28.3,77.5h-16.4l9.3-25.8-18.6-51.7h17l9.4,30.5,11.1-30.5Z"/>
      <path class="cls-1" d="M168.6,0h15.5V77.5h-15.5v-4.8c-1.6,1.8-3.5,3.3-5.7,4.4-2.2,1.1-4.7,1.7-7.5,1.7-3.8,0-7.3-.7-10.5-2.1-3.3-1.4-6.2-3.4-8.7-5.9s-4.5-5.4-5.9-8.7-2.1-6.8-2.1-10.5,.7-7.3,2.1-10.5c1.4-3.3,3.4-6.2,5.9-8.7s5.4-4.5,8.7-5.9,6.8-2.1,10.5-2.1c2.8,0,5.3,.6,7.5,1.7s4.1,2.6,5.7,4.4V0Zm-12.9,64c2.1,0,4.1-.6,5.8-1.7,1.8-1.1,3.2-2.6,4.2-4.4,1-1.9,1.6-3.9,1.6-6.2s-.5-4.3-1.6-6.2c-1-1.9-2.4-3.3-4.2-4.4s-3.7-1.7-5.8-1.7-4.1,.6-5.8,1.7-3.1,2.6-4.1,4.4c-1,1.9-1.5,3.9-1.5,6.2s.5,4.3,1.6,6.2c1,1.9,2.4,3.3,4.2,4.4,1.6,1.1,3.5,1.7,5.6,1.7Z"/>
      <path class="cls-1" d="M196.6,77.5l-.1-51.7h15.5l.1,3.3c1.7-1.5,3.7-2.6,5.9-3.5,2.2-.8,4.5-1.2,7-1.2,1.9,0,3.8,.3,5.7,.8l-6.1,15.7c-1.2-.6-2.4-.8-3.7-.8-1.6,0-3.1,.4-4.4,1.2-1.3,.8-2.4,1.8-3.2,3.2-.8,1.3-1.2,2.8-1.2,4.4v28.7h-15.5v-.1Z"/>
      <path class="cls-1" d="M260.6,78.9c-4.8,0-9.1-1.2-13-3.7-3.9-2.4-7-5.7-9.4-9.8-2.3-4.1-3.5-8.7-3.5-13.7,0-3.8,.7-7.3,2-10.6,1.3-3.3,3.2-6.2,5.6-8.7s5.1-4.5,8.2-5.9,6.5-2.1,10-2.1c4.8,0,9.1,1.2,13,3.7,3.9,2.4,7,5.7,9.4,9.9s3.5,8.7,3.5,13.7c0,3.8-.7,7.3-2,10.5-1.3,3.3-3.2,6.2-5.6,8.7s-5.1,4.5-8.2,5.9c-3,1.4-6.4,2.1-10,2.1Zm0-15.5c2,0,3.7-.5,5.3-1.6,1.6-1.1,2.8-2.5,3.7-4.3,.9-1.8,1.3-3.7,1.3-5.8s-.5-4.2-1.4-5.9c-.9-1.8-2.2-3.2-3.8-4.3-1.6-1.1-3.3-1.6-5.1-1.6-1.9,0-3.7,.5-5.2,1.6-1.6,1.1-2.8,2.5-3.7,4.3-.9,1.8-1.4,3.7-1.4,5.8s.5,4.2,1.4,5.9c.9,1.8,2.2,3.2,3.8,4.2,1.6,1.1,3.3,1.7,5.1,1.7Z"/>
    </g>
    <g class="cls-3">
      <path class="cls-2" d="M295.8,77.5V5.2h27.3c4,0,7.6,1,10.8,3,3.2,2,5.8,4.7,7.7,8.1,1.9,3.4,2.8,7,2.8,11s-1,7.8-2.9,11.1c-1.9,3.3-4.5,6-7.8,8-3.2,2-6.8,3-10.6,3h-11.8v28.1h-15.5Zm15.5-43.6h10c1.4,0,2.6-.4,3.8-1.1,1.1-.7,2-1.6,2.7-2.8,.7-1.2,1-2.5,1-3.9s-.3-2.7-1-3.9c-.7-1.2-1.6-2.1-2.7-2.8-1.1-.7-2.4-1.1-3.8-1.1h-10v15.6Z"/>
      <path class="cls-2" d="M354.7,77.5V0h15.5V77.5h-15.5Z"/>
      <path class="cls-2" d="M419.7,25.8h15.5v51.7h-15.6l-.7-4.7c-1.3,1.8-2.9,3.2-4.8,4.3s-4.2,1.7-6.8,1.7c-3.9,0-7.5-.7-10.8-2.2s-6.3-3.5-8.9-6c-2.6-2.6-4.5-5.5-6-8.9-1.4-3.4-2.1-7-2.1-10.8s.7-7.1,2-10.3c1.3-3.2,3.2-6,5.7-8.5,2.4-2.4,5.2-4.3,8.4-5.7,3.2-1.4,6.6-2.1,10.3-2.1,3,0,5.7,.6,8.1,1.8,2.4,1.2,4.6,2.7,6.5,4.6l-.8-4.9Zm-12.8,38.2c2.1,0,4.1-.6,5.8-1.7,1.8-1.1,3.2-2.6,4.2-4.4,1-1.9,1.6-3.9,1.6-6.2s-.5-4.3-1.6-6.2c-1-1.9-2.4-3.3-4.2-4.4-1.8-1.1-3.7-1.7-5.8-1.7s-4.1,.6-5.8,1.7c-1.7,1.1-3.1,2.6-4.1,4.4-1,1.9-1.5,3.9-1.5,6.2s.5,4.3,1.6,6.2c1,1.9,2.4,3.3,4.2,4.4,1.6,1.1,3.5,1.7,5.6,1.7Z"/>
      <path class="cls-2" d="M494.1,44.5v33h-15.5v-28.7c0-1.6-.4-3.1-1.2-4.4s-1.8-2.4-3.2-3.2c-1.3-.8-2.8-1.2-4.4-1.2s-3.1,.4-4.4,1.2c-1.3,.8-2.4,1.8-3.2,3.2-.8,1.3-1.2,2.8-1.2,4.4v28.7h-15.4l-.1-51.7h15.5l.1,3.3c1.7-1.5,3.7-2.6,5.9-3.5s4.5-1.2,7-1.2c3.7,0,7.1,.9,10.1,2.7,3,1.8,5.5,4.2,7.3,7.3,1.8,3,2.7,6.4,2.7,10.1Z"/>
      <path class="cls-2" d="M532.8,41.3h-8.8v36.2h-15.5V41.3h-6.7v-15.5h6.7V9.6h15.5V25.8h8.8v15.5Z"/>
      <path class="cls-2" d="M550,20.5c-2.2,0-4.1-.7-5.6-2.2s-2.3-3.3-2.3-5.5,.8-4,2.3-5.5,3.4-2.2,5.6-2.2,4,.7,5.5,2.2,2.2,3.3,2.2,5.5-.7,4-2.2,5.5c-1.5,1.4-3.3,2.2-5.5,2.2Zm-7.9,5.3h15.5v51.7h-15.5V25.8Z"/>
      <path class="cls-2" d="M568,77.5l18.9-25.9-18.7-25.7h19.1l9.1,12.5,9.2-12.5h19.1l-18.7,25.7,18.9,25.9h-19.1l-9.4-12.8-9.3,12.8h-19.1Z"/>
    </g>
  </g>
</svg>